<svg xmlns="http://www.w3.org/2000/svg" viewBox="0 0 660.64 87.1"><defs><style>.cls-1{fill:#ffd60a;}.cls-2{fill:#f9f9f9;}</style></defs><title>prints_logo_1</title><g id="Layer_2" data-name="Layer 2"><g id="Layer_1-2" data-name="Layer 1"><path class="cls-1" d="M426.55,59.88A10.48,10.48,0,0,1,437,70.28a10.36,10.36,0,0,1-10.4,10.27,10.25,10.25,0,0,1-10.27-10.27A10.36,10.36,0,0,1,426.55,59.88Z"/><path class="cls-2" d="M47.51,45.49V72.42c0,.14,0,.29,0,.43a6.4,6.4,0,0,1-2.79,5l-.37.22-.34.17-.33.14-.36.13-.24.07-.37.09a6.45,6.45,0,0,1-1.17.12,1.62,1.62,0,0,1-.31,0l-.36,0h-.07a3.11,3.11,0,0,1-.44-.08,3.25,3.25,0,0,1-.42-.11A5.47,5.47,0,0,1,38.76,78a4.21,4.21,0,0,1-.45-.28,1.61,1.61,0,0,1-.3-.21,6.06,6.06,0,0,1-.56-.47l-.29-.29a.69.69,0,0,1-.11-.13c-.1-.11-.19-.23-.28-.35l0,0c-.1-.14-.2-.28-.29-.43a3,3,0,0,1-.22-.39,5.69,5.69,0,0,1-.61-1.81,2.11,2.11,0,0,1,0-.35,5.25,5.25,0,0,1,0-.56V45.49A11.59,11.59,0,0,0,26,34.21l-.53-.09-.55-.07-.43,0h-.15a7.49,7.49,0,0,0-1.16,0H23l-.43,0-.55.07-.53.09A11.6,11.6,0,0,0,12,45.49V72.72a5.25,5.25,0,0,1,0,.56,2.11,2.11,0,0,1,0,.35,5.69,5.69,0,0,1-.61,1.81,3,3,0,0,1-.22.39c-.09.15-.19.29-.29.43l0,0c-.09.12-.18.24-.28.35s-.21.24-.33.36l-.29.26a5.12,5.12,0,0,1-.72.53,2.85,2.85,0,0,1-.37.23,5.74,5.74,0,0,1-1.2.5l-.17,0-.18,0H7.1l-.38.07H6.65l-.36,0a1.62,1.62,0,0,1-.31,0,6.45,6.45,0,0,1-1.17-.12,3.2,3.2,0,0,1-.42-.1l-.19-.06-.36-.13-.33-.14L3.17,78l-.37-.22-.35-.24A6.44,6.44,0,0,1,0,72.85c0-.14,0-.29,0-.43V45.49A23.78,23.78,0,0,1,11.56,25.2s0,0,0,0a.08.08,0,0,0,.12,0,23.1,23.1,0,0,1,7.94-3.1c.53-.1,1.06-.18,1.6-.24l.45,0q.36,0,.72-.06c.46,0,.93,0,1.4,0s.85,0,1.27,0c.25,0,.49,0,.73.06l.45,0,.81.11.79.13a23.08,23.08,0,0,1,8,3.1.09.09,0,0,0,.12,0s0,0,0,0A23.78,23.78,0,0,1,47.51,45.49Z"/><path class="cls-2" d="M54.83,73.49V6.27A6.25,6.25,0,0,1,61.1,0a6.35,6.35,0,0,1,6.38,6.27V45.69L90.84,22.33a6.4,6.4,0,0,1,8.88,0,6.19,6.19,0,0,1,0,8.89L82.63,48.31l17.55,21.07a6.33,6.33,0,0,1-.91,8.89,6,6,0,0,1-4,1.48,6,6,0,0,1-4.79-2.28L73.75,57.19l-6.27,6.27v10a6.35,6.35,0,0,1-6.38,6.26A6.25,6.25,0,0,1,54.83,73.49Z"/><path class="cls-2" d="M130.05,79.75a23.83,23.83,0,0,1-23.7-23.69V28.82a6.15,6.15,0,0,1,6-6,6.07,6.07,0,0,1,6,6V56.06a11.53,11.53,0,0,0,11.62,11.62,11.83,11.83,0,0,0,12-11.62V28.82a6,6,0,0,1,5.92-6,6.33,6.33,0,0,1,6.15,6V56.06C154.09,69,143.15,79.75,130.05,79.75Z"/><path class="cls-2" d="M165.86,0a6.34,6.34,0,0,1,6.38,6.27V73.49a6.32,6.32,0,0,1-12.64,0V6.27A6.32,6.32,0,0,1,165.86,0Z"/><path class="cls-2" d="M201.73,79.75A23.83,23.83,0,0,1,178,56.06V28.82a6.14,6.14,0,0,1,6-6,6.07,6.07,0,0,1,6,6V56.06a11.53,11.53,0,0,0,11.63,11.62,11.83,11.83,0,0,0,12-11.62V28.82a6,6,0,0,1,5.92-6,6.34,6.34,0,0,1,6.16,6V56.06C225.77,69,214.83,79.75,201.73,79.75Z"/><path class="cls-2" d="M237.54,0a6.35,6.35,0,0,1,6.38,6.27V73.49a6.33,6.33,0,0,1-12.65,0V6.27A6.33,6.33,0,0,1,237.54,0Z"/><path class="cls-2" d="M249,51.27c.11-15.5,12.19-28.48,27.8-28.48,14.81,0,26.54,11.05,27.46,26.43v.57a2.94,2.94,0,0,1-.12,1c-.34,2.74-2.73,4.56-5.92,4.56H262a15,15,0,0,0,3.87,7.52c2.39,2.74,7,4.79,10.94,5.13s9-.69,11.85-2.85c2.39-2.51,7.06-2.17,8.54-.34,1.48,1.59,2.62,5,0,7.4-5.58,5.13-12.3,7.52-20.39,7.52C261.17,79.64,249.09,66.76,249,51.27Zm12.42-5.58h32.24c-1.14-4.56-6.95-11.28-16.86-12.08C267.09,34.07,262.31,41,261.4,45.69Z"/><path class="cls-2" d="M308.35,73.49V6.27A6.25,6.25,0,0,1,314.61,0,6.34,6.34,0,0,1,321,6.27V45.69l23.36-23.36a6.41,6.41,0,0,1,8.89,0,6.21,6.21,0,0,1,0,8.89L336.15,48.31l17.54,21.07a6.32,6.32,0,0,1-.91,8.89,6.14,6.14,0,0,1-8.77-.8L327.26,57.19,321,63.46v10a6.34,6.34,0,0,1-6.38,6.26A6.24,6.24,0,0,1,308.35,73.49Z"/><path class="cls-2" d="M364.54,71.44a28.45,28.45,0,0,1-7.86-20.06,29.37,29.37,0,0,1,7.86-19.93,26.59,26.59,0,0,1,19.6-8.66,25.18,25.18,0,0,1,19,8.66,28.44,28.44,0,0,1,8,19.93,27.59,27.59,0,0,1-8,20.06,25.2,25.2,0,0,1-19,8.65A26.62,26.62,0,0,1,364.54,71.44Zm4.56-20.06a18.43,18.43,0,0,0,4.1,12.08,15.41,15.41,0,0,0,10.94,4.22,14.91,14.91,0,0,0,10.48-4.22,17.5,17.5,0,0,0,4.44-12.08,17.13,17.13,0,0,0-4.44-11.85,16.14,16.14,0,0,0-10.48-4.33,16.61,16.61,0,0,0-10.94,4.33A18,18,0,0,0,369.1,51.38Z"/><path class="cls-2" d="M455.85,8.54a6.15,6.15,0,0,1-6.16,6.27,6.23,6.23,0,0,1-6.15-6.27V6.15A6.13,6.13,0,0,1,449.69,0a6.05,6.05,0,0,1,6.16,6.15Zm0,20.63V73.6a6.05,6.05,0,0,1-6.16,6.15,6.13,6.13,0,0,1-6.15-6.15V29.17a6.09,6.09,0,0,1,6.15-6.27A6,6,0,0,1,455.85,29.17Z"/><path class="cls-2" d="M470.68,71.44a28.45,28.45,0,0,1-7.86-20.06,29.37,29.37,0,0,1,7.86-19.93,26.61,26.61,0,0,1,19.6-8.66,25.2,25.2,0,0,1,19,8.66,28.47,28.47,0,0,1,8,19.93,27.62,27.62,0,0,1-8,20.06,25.22,25.22,0,0,1-19,8.65A26.63,26.63,0,0,1,470.68,71.44Zm4.56-20.06a18.43,18.43,0,0,0,4.1,12.08,15.41,15.41,0,0,0,10.94,4.22,14.89,14.89,0,0,0,10.48-4.22,17.5,17.5,0,0,0,4.44-12.08,17.13,17.13,0,0,0-4.44-11.85,16.12,16.12,0,0,0-10.48-4.33,16.61,16.61,0,0,0-10.94,4.33A18,18,0,0,0,475.24,51.38Z"/><path class="cls-2" d="M545.43,69.45a41.93,41.93,0,0,1-13.24,1.39c-.32,2.44-.55,4.44-.71,6a52.84,52.84,0,0,0-.3,5.65c0,.65,0,1.11,0,1.36a2.87,2.87,0,0,1-.53,1.45,1.21,1.21,0,0,1-1.15.51c-.64-.07-1-.34-1-.81s.08-1.57.16-2.85.17-2.58.3-3.87l.82-7.56c-.18,0-.52,0-1,0s-1,0-1.44-.09c-.87-.09-1.24-.73-1.12-1.92q.13-1.29.78-1.23a8.59,8.59,0,0,1,1.26.46,6.54,6.54,0,0,0,1.81.51l1.49-15.3-1.77-.37a5,5,0,0,1-1.92-.71,1.21,1.21,0,0,1-.51-1.15c.09-.93.32-1.38.68-1.35a3.54,3.54,0,0,1,1.42.58,6.86,6.86,0,0,0,.61.36,5.35,5.35,0,0,0,1.48.51,4,4,0,0,1,.74-1.13,1.61,1.61,0,0,1,1.2-.2c.72.07,1.06.25,1,.54a2,2,0,0,1-.21.55,2.12,2.12,0,0,0-.25.76,41.85,41.85,0,0,1,7.4,2.74,28.47,28.47,0,0,1,7,4.5Q551.28,61.3,551,64,550.62,67.84,545.43,69.45Zm1.05-9.83A23.26,23.26,0,0,0,540.54,56a45.65,45.65,0,0,0-6.82-2.43c-.14,2.09-.36,4.87-.67,8.31s-.53,5.72-.64,6.84a31.29,31.29,0,0,0,7-.14,22.58,22.58,0,0,0,6.42-1.65c1.77-.78,2.71-1.75,2.83-2.9C548.81,62.47,548.09,61,546.48,59.62Z"/><path class="cls-2" d="M572.11,60.46a2,2,0,0,1-1.12.7,1.07,1.07,0,0,1-.76-.27,7.11,7.11,0,0,1-.85-.87,3.25,3.25,0,0,0-1.07-.85,2.34,2.34,0,0,0-1.29-.29c-1,.07-2.37,1.55-3.94,4.44a64.22,64.22,0,0,0-4.48,10.79c.1.83.23,1.87.41,3.13s.31,2.19.39,2.8l.31,2.16a2.61,2.61,0,0,1-.23,1.35,1.27,1.27,0,0,1-1.16.65c-.61,0-1.06-.75-1.36-2.38s-.57-4-.82-7.16c-.1-.79-.2-1.93-.32-3.41s-.29-3.24-.51-5.3c-.32-3.1-.53-5.31-.62-6.65-.06-.83.41-1.28,1.43-1.35a1,1,0,0,1,1.16.71,15.26,15.26,0,0,1,.4,3l.6,8.62a43.94,43.94,0,0,1,3-7.46,20.85,20.85,0,0,1,3.39-4.89,5.23,5.23,0,0,1,3.11-1.82,5,5,0,0,1,2.32.38A5.06,5.06,0,0,1,572,57.74a2.71,2.71,0,0,1,.76,1.56A1.73,1.73,0,0,1,572.11,60.46Z"/><path class="cls-2" d="M583.48,52.85l-1.78-.2a3,3,0,0,1-1.78-1c-.58-.57-.85-1-.81-1.34a1.57,1.57,0,0,1,.69-1.08,1.75,1.75,0,0,1,1.22-.41,3.13,3.13,0,0,1,1.25,1,12.36,12.36,0,0,1,.85,1.24,2.74,2.74,0,0,1,.45.93Zm-2.84,34.08a1.59,1.59,0,0,1-1.08.13q-.75-.14-.84-2.55c-.06-1.61,0-4.64.26-9.1q.25-4.39.56-8.6t.49-6.47a1.7,1.7,0,0,1,.29-.87.79.79,0,0,1,.76-.22,1.46,1.46,0,0,1,1.45,1.2,15.65,15.65,0,0,1-.1,4l-.76,6.37c-.4,3.64-.61,6.56-.64,8.78,0,.11,0,1.28.11,3.51a23.91,23.91,0,0,1,.05,3.07A1,1,0,0,1,580.64,86.93Z"/><path class="cls-2" d="M609.32,81.54a2,2,0,0,1-1.21.68,1.76,1.76,0,0,1-1-.08.79.79,0,0,1-.49-.61q-.37-2.19-.86-6.85c-.36-3.32-.73-6.06-1.11-8.24s-.74-3.82-1.09-5.13-.77-1.93-1.24-1.85c-1.21.21-2.28,1.95-3.19,5.21s-1.88,7.53-2.87,12.77l-.43,2.28a1.82,1.82,0,0,1-.57,1,2,2,0,0,1-1,.5,2.29,2.29,0,0,1-.88,0c-.15,0-.28-.24-.37-.59l-1.2-4.31-2.15-7.57c-.78-3-1.56-5.65-2.31-7.87a6.75,6.75,0,0,1-.38-1.2,1.6,1.6,0,0,1,.47-1.43,2.7,2.7,0,0,1,1.52-.79c.35-.06.76.75,1.22,2.43s1.11,4.42,2,8.21l.71,2.8q1.37,5.32,1.68,6.76a5.21,5.21,0,0,0,.16-.77c0-.29.11-.6.2-1a135.31,135.31,0,0,1,3.25-13.44q1.66-5.45,4-5.86c1.1-.19,2,.61,2.76,2.41a42.41,42.41,0,0,1,2,7.06q1,4.85,2.64,14.21A1.41,1.41,0,0,1,609.32,81.54Z"/><path class="cls-2" d="M635.32,61.69a7.67,7.67,0,0,1-2.85.76l-5.59,1-3.53.6c0,1.88,0,3.85.08,5.92s.13,3.87.24,5.43a21.76,21.76,0,0,0,.76,4.83c.36,1.12.56,1.76.6,1.9a1.29,1.29,0,0,1-.68,1,2.36,2.36,0,0,1-1.28.46.85.85,0,0,1-.54-.19,1.66,1.66,0,0,1-.38-.63,12.71,12.71,0,0,1-.62-2.82c-.2-1.38-.36-2.9-.47-4.56-.1-1.49-.19-3.22-.24-5.19s-.08-3.88-.08-5.73c-2,.33-4.11.72-6.25,1.19a28.45,28.45,0,0,1-3.42.6,2.12,2.12,0,0,1-1.22-.38,1.18,1.18,0,0,1-.57-1,.89.89,0,0,1,.49-.92,4.23,4.23,0,0,1,1.63-.22,14,14,0,0,0,2.39-.3c1.05-.2,1.72-.33,2-.41,2.42-.47,4.07-.78,4.94-.92,0-.76,0-1.76-.11-3-.07-1.66-.11-2.93-.11-3.8a30.37,30.37,0,0,1,.14-3.29,8.1,8.1,0,0,1,.51-2.09,1.62,1.62,0,0,1,1.63-1.08.91.91,0,0,1,.65.16.84.84,0,0,1,.17.6,18.17,18.17,0,0,1-.27,1.9,24.5,24.5,0,0,0-.28,4.18c0,1.34,0,2.84.11,4.51l.06,1.46q2.44-.37,9.67-2a1.24,1.24,0,0,0,.73-.76c.2-.44.41-.66.62-.66a1.76,1.76,0,0,1,1.23.68,2.1,2.1,0,0,1,.62,1.39A1.57,1.57,0,0,1,635.32,61.69Z"/><path class="cls-2" d="M657.47,79.17a15.87,15.87,0,0,1-6.45,2.7,20.15,20.15,0,0,1-7.7,0,9.09,9.09,0,0,1-3.48-1.12,1.43,1.43,0,0,1-.69-1.45c.06-.34.64-.86,1.75-1.56a4.49,4.49,0,0,1,2.15-1c.49.09.72.23.68.42a.62.62,0,0,1-.39.41c-.24.12-.36.23-.38.35s.19.36.68.61a6.7,6.7,0,0,0,1.83.57,16.09,16.09,0,0,0,5.37.06,12.58,12.58,0,0,0,4.7-1.56,4.17,4.17,0,0,0,2.23-2.76,3.19,3.19,0,0,0-.59-2.68,6.63,6.63,0,0,0-2.36-1.85q-1.49-.72-5-2.21-3.9-1.62-6-2.7a11.6,11.6,0,0,1-3.29-2.34,3.15,3.15,0,0,1-.88-2.83q.51-2.78,3.83-4.56a23,23,0,0,1,7.32-2.43,19.14,19.14,0,0,1,6-.27c1.39.26,2,.78,1.87,1.55a3.1,3.1,0,0,1-.77,1.44,1.63,1.63,0,0,1-1.63.57,1.56,1.56,0,0,1-.75-.41,1.84,1.84,0,0,0-.82-.42,19,19,0,0,0-9.23,1.42,4.43,4.43,0,0,0-2.82,3.25,2.24,2.24,0,0,0,1.31,2.37,48.08,48.08,0,0,0,6,2.81,7.62,7.62,0,0,0,1.06.47,8.93,8.93,0,0,1,1,.38,30.44,30.44,0,0,1,6.82,3.71,4.34,4.34,0,0,1,1.78,4.46A7.29,7.29,0,0,1,657.47,79.17Z"/></g></g></svg>